<?xml version="1.0" encoding="UTF-8" standalone="no"?>
<!DOCTYPE svg PUBLIC "-//W3C//DTD SVG 1.1//EN"
 "http://www.w3.org/Graphics/SVG/1.1/DTD/svg11.dtd">
<!-- Generated by graphviz version 2.40.1 (20161225.0304)
 -->
<!-- Title: controllers_diagram Pages: 1 -->
<svg width="552pt" height="555pt"
 viewBox="0.00 0.00 552.41 555.00" xmlns="http://www.w3.org/2000/svg" xmlns:xlink="http://www.w3.org/1999/xlink">
<g id="graph0" class="graph" transform="scale(1 1) rotate(0) translate(4 551)">
<title>controllers_diagram</title>
<polygon fill="transparent" stroke="transparent" points="-4,4 -4,-551 548.4072,-551 548.4072,4 -4,4"/>
<!-- _diagram_info -->
<g id="node1" class="node">
<title>_diagram_info</title>
<text text-anchor="start" x="88" y="-426.6" font-family="Times,serif" font-size="13.00" fill="#000000">Controllers diagram</text>
<text text-anchor="start" x="88" y="-413.6" font-family="Times,serif" font-size="13.00" fill="#000000">Date: Feb 03 2017 &#45; 09:28</text>
<text text-anchor="start" x="88" y="-400.6" font-family="Times,serif" font-size="13.00" fill="#000000">Migration version: 20170203080428</text>
<text text-anchor="start" x="88" y="-387.6" font-family="Times,serif" font-size="13.00" fill="#000000">Generated by RailRoady 1.5.2</text>
<text text-anchor="start" x="88" y="-374.6" font-family="Times,serif" font-size="13.00" fill="#000000">http://railroady.prestonlee.com</text>
</g>
<!-- ApplicationController -->
<g id="node2" class="node">
<title>ApplicationController</title>
<path fill="none" stroke="#000000" d="M332,-256.5C332,-256.5 455.4072,-256.5 455.4072,-256.5 461.4072,-256.5 467.4072,-262.5 467.4072,-268.5 467.4072,-268.5 467.4072,-362.5 467.4072,-362.5 467.4072,-368.5 461.4072,-374.5 455.4072,-374.5 455.4072,-374.5 332,-374.5 332,-374.5 326,-374.5 320,-368.5 320,-362.5 320,-362.5 320,-268.5 320,-268.5 320,-262.5 326,-256.5 332,-256.5"/>
<text text-anchor="middle" x="393.7036" y="-359.3" font-family="Times,serif" font-size="14.00" fill="#000000">ApplicationController</text>
<polyline fill="none" stroke="#000000" points="320,-352.5 467.4072,-352.5 "/>
<text text-anchor="start" x="328" y="-337.3" font-family="Times,serif" font-size="14.00" fill="#000000">after_sign_in_path_for</text>
<text text-anchor="start" x="328" y="-323.3" font-family="Times,serif" font-size="14.00" fill="#000000">after_sign_up_path_for</text>
<polyline fill="none" stroke="#000000" points="320,-316.5 467.4072,-316.5 "/>
<polyline fill="none" stroke="#000000" points="320,-292.5 467.4072,-292.5 "/>
<text text-anchor="start" x="328" y="-277.3" font-family="Times,serif" font-size="14.00" fill="#000000">_layout</text>
<text text-anchor="start" x="328" y="-263.3" font-family="Times,serif" font-size="14.00" fill="#000000">skip_pundit?</text>
</g>
<!-- MealsController -->
<g id="node3" class="node">
<title>MealsController</title>
<path fill="none" stroke="#000000" d="M412,-400.5C412,-400.5 495.7588,-400.5 495.7588,-400.5 501.7588,-400.5 507.7588,-406.5 507.7588,-412.5 507.7588,-412.5 507.7588,-534.5 507.7588,-534.5 507.7588,-540.5 501.7588,-546.5 495.7588,-546.5 495.7588,-546.5 412,-546.5 412,-546.5 406,-546.5 400,-540.5 400,-534.5 400,-534.5 400,-412.5 400,-412.5 400,-406.5 406,-400.5 412,-400.5"/>
<text text-anchor="middle" x="453.8794" y="-531.3" font-family="Times,serif" font-size="14.00" fill="#000000">MealsController</text>
<polyline fill="none" stroke="#000000" points="400,-524.5 507.7588,-524.5 "/>
<text text-anchor="start" x="408" y="-509.3" font-family="Times,serif" font-size="14.00" fill="#000000">create</text>
<text text-anchor="start" x="408" y="-495.3" font-family="Times,serif" font-size="14.00" fill="#000000">update</text>
<polyline fill="none" stroke="#000000" points="400,-488.5 507.7588,-488.5 "/>
<polyline fill="none" stroke="#000000" points="400,-464.5 507.7588,-464.5 "/>
<text text-anchor="start" x="408" y="-449.3" font-family="Times,serif" font-size="14.00" fill="#000000">_layout</text>
<text text-anchor="start" x="408" y="-435.3" font-family="Times,serif" font-size="14.00" fill="#000000">meal_params</text>
<text text-anchor="start" x="408" y="-421.3" font-family="Times,serif" font-size="14.00" fill="#000000">set_meal</text>
<text text-anchor="start" x="408" y="-407.3" font-family="Times,serif" font-size="14.00" fill="#000000">set_restaurant</text>
</g>
<!-- OrdersController -->
<g id="node4" class="node">
<title>OrdersController</title>
<path fill="none" stroke="#000000" d="M12,-192.5C12,-192.5 99.6416,-192.5 99.6416,-192.5 105.6416,-192.5 111.6416,-198.5 111.6416,-204.5 111.6416,-204.5 111.6416,-326.5 111.6416,-326.5 111.6416,-332.5 105.6416,-338.5 99.6416,-338.5 99.6416,-338.5 12,-338.5 12,-338.5 6,-338.5 0,-332.5 0,-326.5 0,-326.5 0,-204.5 0,-204.5 0,-198.5 6,-192.5 12,-192.5"/>
<text text-anchor="middle" x="55.8208" y="-323.3" font-family="Times,serif" font-size="14.00" fill="#000000">OrdersController</text>
<polyline fill="none" stroke="#000000" points="0,-316.5 111.6416,-316.5 "/>
<text text-anchor="start" x="8" y="-301.3" font-family="Times,serif" font-size="14.00" fill="#000000">pending</text>
<text text-anchor="start" x="8" y="-287.3" font-family="Times,serif" font-size="14.00" fill="#000000">update</text>
<polyline fill="none" stroke="#000000" points="0,-280.5 111.6416,-280.5 "/>
<polyline fill="none" stroke="#000000" points="0,-256.5 111.6416,-256.5 "/>
<text text-anchor="start" x="8" y="-241.3" font-family="Times,serif" font-size="14.00" fill="#000000">_layout</text>
<text text-anchor="start" x="8" y="-227.3" font-family="Times,serif" font-size="14.00" fill="#000000">order_params</text>
<text text-anchor="start" x="8" y="-213.3" font-family="Times,serif" font-size="14.00" fill="#000000">set_order</text>
<text text-anchor="start" x="8" y="-199.3" font-family="Times,serif" font-size="14.00" fill="#000000">set_restaurant</text>
</g>
<!-- PagesController -->
<g id="node5" class="node">
<title>PagesController</title>
<path fill="none" stroke="#000000" d="M12,-48.5C12,-48.5 94.207,-48.5 94.207,-48.5 100.207,-48.5 106.207,-54.5 106.207,-60.5 106.207,-60.5 106.207,-140.5 106.207,-140.5 106.207,-146.5 100.207,-152.5 94.207,-152.5 94.207,-152.5 12,-152.5 12,-152.5 6,-152.5 0,-146.5 0,-140.5 0,-140.5 0,-60.5 0,-60.5 0,-54.5 6,-48.5 12,-48.5"/>
<text text-anchor="middle" x="53.1035" y="-137.3" font-family="Times,serif" font-size="14.00" fill="#000000">PagesController</text>
<polyline fill="none" stroke="#000000" points="0,-130.5 106.207,-130.5 "/>
<text text-anchor="start" x="8" y="-115.3" font-family="Times,serif" font-size="14.00" fill="#000000">home</text>
<text text-anchor="start" x="8" y="-101.3" font-family="Times,serif" font-size="14.00" fill="#000000">privacy_policy</text>
<polyline fill="none" stroke="#000000" points="0,-94.5 106.207,-94.5 "/>
<polyline fill="none" stroke="#000000" points="0,-70.5 106.207,-70.5 "/>
<text text-anchor="start" x="8" y="-55.3" font-family="Times,serif" font-size="14.00" fill="#000000">_layout</text>
</g>
<!-- RestaurantsController -->
<g id="node6" class="node">
<title>RestaurantsController</title>
<path fill="none" stroke="#000000" d="M156,-112.5C156,-112.5 270.8623,-112.5 270.8623,-112.5 276.8623,-112.5 282.8623,-118.5 282.8623,-124.5 282.8623,-124.5 282.8623,-302.5 282.8623,-302.5 282.8623,-308.5 276.8623,-314.5 270.8623,-314.5 270.8623,-314.5 156,-314.5 156,-314.5 150,-314.5 144,-308.5 144,-302.5 144,-302.5 144,-124.5 144,-124.5 144,-118.5 150,-112.5 156,-112.5"/>
<text text-anchor="middle" x="213.4312" y="-299.3" font-family="Times,serif" font-size="14.00" fill="#000000">RestaurantsController</text>
<polyline fill="none" stroke="#000000" points="144,-292.5 282.8623,-292.5 "/>
<text text-anchor="start" x="152" y="-277.3" font-family="Times,serif" font-size="14.00" fill="#000000">index</text>
<text text-anchor="start" x="152" y="-263.3" font-family="Times,serif" font-size="14.00" fill="#000000">duty</text>
<text text-anchor="start" x="152" y="-249.3" font-family="Times,serif" font-size="14.00" fill="#000000">edit</text>
<text text-anchor="start" x="152" y="-235.3" font-family="Times,serif" font-size="14.00" fill="#000000">create</text>
<text text-anchor="start" x="152" y="-221.3" font-family="Times,serif" font-size="14.00" fill="#000000">new</text>
<text text-anchor="start" x="152" y="-207.3" font-family="Times,serif" font-size="14.00" fill="#000000">show</text>
<text text-anchor="start" x="152" y="-193.3" font-family="Times,serif" font-size="14.00" fill="#000000">update</text>
<polyline fill="none" stroke="#000000" points="144,-186.5 282.8623,-186.5 "/>
<polyline fill="none" stroke="#000000" points="144,-162.5 282.8623,-162.5 "/>
<text text-anchor="start" x="152" y="-147.3" font-family="Times,serif" font-size="14.00" fill="#000000">_layout</text>
<text text-anchor="start" x="152" y="-133.3" font-family="Times,serif" font-size="14.00" fill="#000000">restaurant_params</text>
<text text-anchor="start" x="152" y="-119.3" font-family="Times,serif" font-size="14.00" fill="#000000">set_restaurant</text>
</g>
<!-- Users::OmniauthCallbacksController -->
<g id="node7" class="node">
<title>Users::OmniauthCallbacksController</title>
<path fill="none" stroke="#000000" d="M332,-128.5C332,-128.5 532.4072,-128.5 532.4072,-128.5 538.4072,-128.5 544.4072,-134.5 544.4072,-140.5 544.4072,-140.5 544.4072,-206.5 544.4072,-206.5 544.4072,-212.5 538.4072,-218.5 532.4072,-218.5 532.4072,-218.5 332,-218.5 332,-218.5 326,-218.5 320,-212.5 320,-206.5 320,-206.5 320,-140.5 320,-140.5 320,-134.5 326,-128.5 332,-128.5"/>
<text text-anchor="middle" x="432.2036" y="-203.3" font-family="Times,serif" font-size="14.00" fill="#000000">Users::OmniauthCallbacksController</text>
<polyline fill="none" stroke="#000000" points="320,-196.5 544.4072,-196.5 "/>
<text text-anchor="start" x="328" y="-181.3" font-family="Times,serif" font-size="14.00" fill="#000000">facebook</text>
<polyline fill="none" stroke="#000000" points="320,-174.5 544.4072,-174.5 "/>
<polyline fill="none" stroke="#000000" points="320,-150.5 544.4072,-150.5 "/>
<text text-anchor="start" x="328" y="-135.3" font-family="Times,serif" font-size="14.00" fill="#000000">_layout</text>
</g>
<!-- UsersController -->
<g id="node8" class="node">
<title>UsersController</title>
<path fill="none" stroke="#000000" d="M332,-.5C332,-.5 413.4277,-.5 413.4277,-.5 419.4277,-.5 425.4277,-6.5 425.4277,-12.5 425.4277,-12.5 425.4277,-78.5 425.4277,-78.5 425.4277,-84.5 419.4277,-90.5 413.4277,-90.5 413.4277,-90.5 332,-90.5 332,-90.5 326,-90.5 320,-84.5 320,-78.5 320,-78.5 320,-12.5 320,-12.5 320,-6.5 326,-.5 332,-.5"/>
<text text-anchor="middle" x="372.7139" y="-75.3" font-family="Times,serif" font-size="14.00" fill="#000000">UsersController</text>
<polyline fill="none" stroke="#000000" points="320,-68.5 425.4277,-68.5 "/>
<text text-anchor="start" x="328" y="-53.3" font-family="Times,serif" font-size="14.00" fill="#000000">show</text>
<polyline fill="none" stroke="#000000" points="320,-46.5 425.4277,-46.5 "/>
<polyline fill="none" stroke="#000000" points="320,-22.5 425.4277,-22.5 "/>
<text text-anchor="start" x="328" y="-7.3" font-family="Times,serif" font-size="14.00" fill="#000000">_layout</text>
</g>
</g>
</svg>
