<?xml version="1.0" encoding="UTF-8" standalone="no"?>
<!DOCTYPE svg PUBLIC "-//W3C//DTD SVG 1.1//EN"
 "http://www.w3.org/Graphics/SVG/1.1/DTD/svg11.dtd">
<!-- Generated by graphviz version 2.40.1 (20161225.0304)
 -->
<!-- Title: models_diagram Pages: 1 -->
<svg width="768pt" height="545pt"
 viewBox="0.00 0.00 767.92 545.00" xmlns="http://www.w3.org/2000/svg" xmlns:xlink="http://www.w3.org/1999/xlink">
<g id="graph0" class="graph" transform="scale(1 1) rotate(0) translate(4 541)">
<title>models_diagram</title>
<polygon fill="transparent" stroke="transparent" points="-4,4 -4,-541 763.9153,-541 763.9153,4 -4,4"/>
<!-- _diagram_info -->
<g id="node1" class="node">
<title>_diagram_info</title>
<text text-anchor="start" x="8" y="-522.6" font-family="Times,serif" font-size="13.00" fill="#000000">Models diagram</text>
<text text-anchor="start" x="8" y="-509.6" font-family="Times,serif" font-size="13.00" fill="#000000">Date: Feb 03 2017 &#45; 09:28</text>
<text text-anchor="start" x="8" y="-496.6" font-family="Times,serif" font-size="13.00" fill="#000000">Migration version: 20170203080428</text>
<text text-anchor="start" x="8" y="-483.6" font-family="Times,serif" font-size="13.00" fill="#000000">Generated by RailRoady 1.5.2</text>
<text text-anchor="start" x="8" y="-470.6" font-family="Times,serif" font-size="13.00" fill="#000000">http://railroady.prestonlee.com</text>
</g>
<!-- ApplicationRecord -->
<g id="node2" class="node">
<title>ApplicationRecord</title>
<ellipse fill="none" stroke="#000000" cx="302.6877" cy="-500.5" rx="77.2916" ry="18"/>
<text text-anchor="middle" x="302.6877" y="-496.3" font-family="Times,serif" font-size="14.00" fill="#000000">ApplicationRecord</text>
</g>
<!-- Meal -->
<g id="node3" class="node">
<title>Meal</title>
<ellipse fill="none" stroke="#000000" cx="337.6877" cy="-104" rx="28.0565" ry="18"/>
<text text-anchor="middle" x="337.6877" y="-99.8" font-family="Times,serif" font-size="14.00" fill="#000000">Meal</text>
</g>
<!-- MealOption -->
<g id="node5" class="node">
<title>MealOption</title>
<ellipse fill="none" stroke="#000000" cx="200.6877" cy="-18" rx="52.6865" ry="18"/>
<text text-anchor="middle" x="200.6877" y="-13.8" font-family="Times,serif" font-size="14.00" fill="#000000">MealOption</text>
</g>
<!-- Meal&#45;&gt;MealOption -->
<g id="edge1" class="edge">
<title>Meal&#45;&gt;MealOption</title>
<path fill="none" stroke="#303ae5" d="M310.5569,-86.969C288.7896,-73.3048 258.1113,-54.0469 234.7024,-39.3522"/>
<ellipse fill="none" stroke="#303ae5" cx="314.0851" cy="-89.1837" rx="4" ry="4"/>
<polygon fill="#303ae5" stroke="#303ae5" points="234.5899,-39.2817 228.5128,-30.1537 230.3551,-36.6233 226.1203,-33.965 226.1203,-33.965 226.1203,-33.965 230.3551,-36.6233 223.7278,-37.7763 234.5899,-39.2817 234.5899,-39.2817"/>
</g>
<!-- Option -->
<g id="node8" class="node">
<title>Option</title>
<ellipse fill="none" stroke="#000000" cx="92.6877" cy="-18" rx="34.8458" ry="18"/>
<text text-anchor="middle" x="92.6877" y="-13.8" font-family="Times,serif" font-size="14.00" fill="#000000">Option</text>
</g>
<!-- Meal&#45;&gt;Option -->
<g id="edge2" class="edge">
<title>Meal&#45;&gt;Option</title>
<path fill="none" stroke="#a632c5" d="M302.9135,-92.6292C263.0671,-79.4814 195.891,-56.954 138.6877,-36 135.8014,-34.9427 132.8216,-33.8286 129.831,-32.6944"/>
<polygon fill="#a632c5" stroke="#a632c5" points="302.934,-92.6359 311.0252,-100.0374 307.6832,-94.1995 312.4325,-95.7631 312.4325,-95.7631 312.4325,-95.7631 307.6832,-94.1995 313.8397,-91.4888 302.934,-92.6359 302.934,-92.6359"/>
<polygon fill="#a632c5" stroke="#a632c5" points="129.6778,-32.6356 121.9581,-24.8473 125.0107,-30.8416 120.3436,-29.0477 120.3436,-29.0477 120.3436,-29.0477 125.0107,-30.8416 118.729,-33.2481 129.6778,-32.6356 129.6778,-32.6356"/>
</g>
<!-- OrderElement -->
<g id="node10" class="node">
<title>OrderElement</title>
<ellipse fill="none" stroke="#000000" cx="337.6877" cy="-18" rx="60.3942" ry="18"/>
<text text-anchor="middle" x="337.6877" y="-13.8" font-family="Times,serif" font-size="14.00" fill="#000000">OrderElement</text>
</g>
<!-- Meal&#45;&gt;OrderElement -->
<g id="edge3" class="edge">
<title>Meal&#45;&gt;OrderElement</title>
<path fill="none" stroke="#03119e" d="M337.6877,-77.4021C337.6877,-67.585 337.6877,-56.4263 337.6877,-46.4515"/>
<ellipse fill="none" stroke="#03119e" cx="337.6878" cy="-81.7616" rx="4" ry="4"/>
<polygon fill="#03119e" stroke="#03119e" points="337.6878,-46.2121 342.1877,-36.2121 337.6878,-41.2121 337.6877,-36.2121 337.6877,-36.2121 337.6877,-36.2121 337.6878,-41.2121 333.1877,-36.2121 337.6878,-46.2121 337.6878,-46.2121"/>
</g>
<!-- Attachinary::File -->
<g id="node14" class="node">
<title>Attachinary::File</title>
<ellipse fill="none" stroke="#000000" cx="592.6877" cy="-18" rx="70.5427" ry="18"/>
<text text-anchor="middle" x="592.6877" y="-13.8" font-family="Times,serif" font-size="14.00" fill="#000000">Attachinary::File</text>
</g>
<!-- Meal&#45;&gt;Attachinary::File -->
<g id="edge4" class="edge">
<title>Meal&#45;&gt;Attachinary::File</title>
<path fill="none" stroke="#45c5fa" d="M370.9042,-92.7976C413.9132,-78.2926 489.3645,-52.8463 540.1726,-35.711"/>
<ellipse fill="none" stroke="#45c5fa" cx="366.8606" cy="-94.1613" rx="4" ry="4"/>
<polygon fill="#45c5fa" stroke="#45c5fa" points="540.1982,-35.7024 551.1119,-36.7707 544.936,-34.1045 549.6738,-32.5067 549.6738,-32.5067 549.6738,-32.5067 544.936,-34.1045 548.2357,-28.2426 540.1982,-35.7024 540.1982,-35.7024"/>
<text text-anchor="middle" x="511.8015" y="-56.8" font-family="Times,serif" font-size="14.00" fill="#000000">photo_files</text>
</g>
<!-- MealCategory -->
<g id="node4" class="node">
<title>MealCategory</title>
<ellipse fill="none" stroke="#000000" cx="352.6877" cy="-177" rx="60.8873" ry="18"/>
<text text-anchor="middle" x="352.6877" y="-172.8" font-family="Times,serif" font-size="14.00" fill="#000000">MealCategory</text>
</g>
<!-- MealCategory&#45;&gt;Meal -->
<g id="edge5" class="edge">
<title>MealCategory&#45;&gt;Meal</title>
<path fill="none" stroke="#07aeb2" d="M347.3263,-150.9079C346.07,-144.7936 344.7263,-138.2541 343.4531,-132.058"/>
<ellipse fill="none" stroke="#07aeb2" cx="348.1747" cy="-155.0369" rx="4" ry="4"/>
<polygon fill="#07aeb2" stroke="#07aeb2" points="343.4178,-131.8857 345.8128,-121.1846 342.4114,-126.988 341.4049,-122.0904 341.4049,-122.0904 341.4049,-122.0904 342.4114,-126.988 336.997,-122.9961 343.4178,-131.8857 343.4178,-131.8857"/>
</g>
<!-- Menu -->
<g id="node6" class="node">
<title>Menu</title>
<ellipse fill="none" stroke="#000000" cx="568.6877" cy="-263" rx="30.9793" ry="18"/>
<text text-anchor="middle" x="568.6877" y="-258.8" font-family="Times,serif" font-size="14.00" fill="#000000">Menu</text>
</g>
<!-- Menu&#45;&gt;MealCategory -->
<g id="edge7" class="edge">
<title>Menu&#45;&gt;MealCategory</title>
<path fill="none" stroke="#a773b1" d="M533.7657,-249.0958C496.9731,-234.447 438.8678,-211.3124 398.4366,-195.2148"/>
<polygon fill="#a773b1" stroke="#a773b1" points="533.7708,-249.0978 541.3969,-256.9778 538.4161,-250.9474 543.0615,-252.797 543.0615,-252.797 543.0615,-252.797 538.4161,-250.9474 544.7261,-248.6161 533.7708,-249.0978 533.7708,-249.0978"/>
<polygon fill="#a773b1" stroke="#a773b1" points="398.3642,-195.1861 390.7381,-187.3061 393.7189,-193.3365 389.0735,-191.4869 389.0735,-191.4869 389.0735,-191.4869 393.7189,-193.3365 387.4089,-195.6677 398.3642,-195.1861 398.3642,-195.1861"/>
</g>
<!-- MenuMealCategory -->
<g id="node7" class="node">
<title>MenuMealCategory</title>
<ellipse fill="none" stroke="#000000" cx="550.6877" cy="-177" rx="81.1508" ry="18"/>
<text text-anchor="middle" x="550.6877" y="-172.8" font-family="Times,serif" font-size="14.00" fill="#000000">MenuMealCategory</text>
</g>
<!-- Menu&#45;&gt;MenuMealCategory -->
<g id="edge6" class="edge">
<title>Menu&#45;&gt;MenuMealCategory</title>
<path fill="none" stroke="#863bb9" d="M563.2005,-236.7834C561.1117,-226.8033 558.7234,-215.3925 556.5971,-205.2334"/>
<ellipse fill="none" stroke="#863bb9" cx="564.0509" cy="-240.8464" rx="4" ry="4"/>
<polygon fill="#863bb9" stroke="#863bb9" points="556.5483,-205 558.9041,-194.2902 555.5239,-200.1061 554.4996,-195.2121 554.4996,-195.2121 554.4996,-195.2121 555.5239,-200.1061 550.095,-196.134 556.5483,-205 556.5483,-205"/>
</g>
<!-- Menu&#45;&gt;OrderElement -->
<g id="edge8" class="edge">
<title>Menu&#45;&gt;OrderElement</title>
<path fill="none" stroke="#ddcaed" d="M596.9533,-245.0579C613.0561,-233.0715 631.755,-215.7234 640.6877,-195 647.0212,-180.3069 646.4003,-173.9455 640.6877,-159 618.325,-100.493 601.4863,-84.336 546.6877,-54 522.8304,-40.7928 456.6096,-30.8167 405.0367,-24.7544"/>
<ellipse fill="none" stroke="#ddcaed" cx="593.499" cy="-247.5319" rx="4" ry="4"/>
<polygon fill="#ddcaed" stroke="#ddcaed" points="404.8691,-24.7352 395.4478,-19.1237 399.9017,-24.1647 394.9344,-23.5943 394.9344,-23.5943 394.9344,-23.5943 399.9017,-24.1647 394.4209,-28.0649 404.8691,-24.7352 404.8691,-24.7352"/>
</g>
<!-- Order -->
<g id="node9" class="node">
<title>Order</title>
<ellipse fill="none" stroke="#000000" cx="263.6877" cy="-336" rx="30.9619" ry="18"/>
<text text-anchor="middle" x="263.6877" y="-331.8" font-family="Times,serif" font-size="14.00" fill="#000000">Order</text>
</g>
<!-- Order&#45;&gt;Meal -->
<g id="edge10" class="edge">
<title>Order&#45;&gt;Meal</title>
<path fill="none" stroke="#c8801a" d="M261.112,-307.5167C259.0498,-271.1777 259.6037,-207.259 282.6877,-159 289.0956,-145.6038 300.1473,-133.5677 310.6706,-124.1952"/>
<polygon fill="#c8801a" stroke="#c8801a" points="261.1369,-307.8839 257.3243,-318.1657 261.4754,-312.8724 261.814,-317.861 261.814,-317.861 261.814,-317.861 261.4754,-312.8724 266.3037,-317.5563 261.1369,-307.8839 261.1369,-307.8839"/>
<polygon fill="#c8801a" stroke="#c8801a" points="310.8843,-124.0151 321.4301,-121.009 314.7068,-120.7919 318.5293,-117.5688 318.5293,-117.5688 318.5293,-117.5688 314.7068,-120.7919 315.6284,-114.1285 310.8843,-124.0151 310.8843,-124.0151"/>
</g>
<!-- Order&#45;&gt;MealCategory -->
<g id="edge11" class="edge">
<title>Order&#45;&gt;MealCategory</title>
<path fill="none" stroke="#6f0ad0" d="M275.6191,-308.9957C287.2404,-283.5697 305.9912,-244.7543 325.6877,-213 327.7004,-209.7552 329.9288,-206.4371 332.217,-203.1922"/>
<polygon fill="#6f0ad0" stroke="#6f0ad0" points="275.5025,-309.2537 267.2821,-316.5115 273.4425,-313.8096 271.3824,-318.3655 271.3824,-318.3655 271.3824,-318.3655 273.4425,-313.8096 275.4828,-320.2195 275.5025,-309.2537 275.5025,-309.2537"/>
<polygon fill="#6f0ad0" stroke="#6f0ad0" points="332.3999,-202.9423 341.9381,-197.5317 335.3535,-198.9079 338.3071,-194.8735 338.3071,-194.8735 338.3071,-194.8735 335.3535,-198.9079 334.6762,-192.2152 332.3999,-202.9423 332.3999,-202.9423"/>
</g>
<!-- Order&#45;&gt;OrderElement -->
<g id="edge12" class="edge">
<title>Order&#45;&gt;OrderElement</title>
<path fill="none" stroke="#d4bd36" d="M244.6286,-313.1312C235.1484,-299.4628 225.6877,-281.2505 225.6877,-263 225.6877,-263 225.6877,-263 225.6877,-104 225.6877,-70.8179 256.9964,-48.6831 286.5069,-35.1896"/>
<ellipse fill="none" stroke="#d4bd36" cx="247.1759" cy="-316.6126" rx="4" ry="4"/>
<polygon fill="#d4bd36" stroke="#d4bd36" points="286.7984,-35.0642 297.7628,-35.2423 291.3907,-33.0867 295.9831,-31.1092 295.9831,-31.1092 295.9831,-31.1092 291.3907,-33.0867 294.2033,-26.9761 286.7984,-35.0642 286.7984,-35.0642"/>
</g>
<!-- OrderedMeal -->
<g id="node11" class="node">
<title>OrderedMeal</title>
<ellipse fill="none" stroke="#000000" cx="424.6877" cy="-263" rx="57.4961" ry="18"/>
<text text-anchor="middle" x="424.6877" y="-258.8" font-family="Times,serif" font-size="14.00" fill="#000000">OrderedMeal</text>
</g>
<!-- Order&#45;&gt;OrderedMeal -->
<g id="edge9" class="edge">
<title>Order&#45;&gt;OrderedMeal</title>
<path fill="none" stroke="#f999b8" d="M295.6534,-321.5063C320.5883,-310.2004 355.4366,-294.3996 382.6334,-282.0681"/>
<ellipse fill="none" stroke="#f999b8" cx="291.7832" cy="-323.261" rx="4" ry="4"/>
<polygon fill="#f999b8" stroke="#f999b8" points="382.7978,-281.9936 393.7636,-281.9625 387.3516,-279.9289 391.9053,-277.8641 391.9053,-277.8641 391.9053,-277.8641 387.3516,-279.9289 390.047,-273.7657 382.7978,-281.9936 382.7978,-281.9936"/>
</g>
<!-- Element -->
<g id="node15" class="node">
<title>Element</title>
<ellipse fill="none" stroke="#000000" cx="157.6877" cy="-263" rx="39.6472" ry="18"/>
<text text-anchor="middle" x="157.6877" y="-258.8" font-family="Times,serif" font-size="14.00" fill="#000000">Element</text>
</g>
<!-- Order&#45;&gt;Element -->
<g id="edge13" class="edge">
<title>Order&#45;&gt;Element</title>
<path fill="none" stroke="#507ad3" d="M235.1116,-316.3202C220.5596,-306.2985 202.8635,-294.1116 188.0645,-283.9198"/>
<polygon fill="#507ad3" stroke="#507ad3" points="235.5141,-316.5973 241.1976,-325.9754 239.632,-319.4333 243.75,-322.2693 243.75,-322.2693 243.75,-322.2693 239.632,-319.4333 246.3023,-318.5631 235.5141,-316.5973 235.5141,-316.5973"/>
<polygon fill="#507ad3" stroke="#507ad3" points="187.9674,-283.853 182.2838,-274.4749 183.8494,-281.017 179.7315,-278.1811 179.7315,-278.1811 179.7315,-278.1811 183.8494,-281.017 177.1791,-281.8872 187.9674,-283.853 187.9674,-283.853"/>
</g>
<!-- OrderedMeal&#45;&gt;MealCategory -->
<g id="edge14" class="edge">
<title>OrderedMeal&#45;&gt;MealCategory</title>
<path fill="none" stroke="#8faed9" d="M404.5631,-238.9622C394.5884,-227.048 382.5805,-212.7052 372.6307,-200.8207"/>
<ellipse fill="none" stroke="#8faed9" cx="407.2015" cy="-242.1137" rx="4" ry="4"/>
<ellipse fill="#8faed9" stroke="#8faed9" cx="369.9085" cy="-197.5692" rx="4" ry="4"/>
</g>
<!-- Restaurant -->
<g id="node12" class="node">
<title>Restaurant</title>
<ellipse fill="none" stroke="#000000" cx="424.6877" cy="-409" rx="47.8496" ry="18"/>
<text text-anchor="middle" x="424.6877" y="-404.8" font-family="Times,serif" font-size="14.00" fill="#000000">Restaurant</text>
</g>
<!-- Restaurant&#45;&gt;Meal -->
<g id="edge15" class="edge">
<title>Restaurant&#45;&gt;Meal</title>
<path fill="none" stroke="#8842ab" d="M445.807,-385.1442C471.1828,-353.4645 508.2795,-295.6115 490.6877,-245 482.6888,-221.987 440.7118,-175.3925 422.6877,-159 406.3402,-144.1322 385.5496,-130.603 368.6222,-120.6833"/>
<ellipse fill="none" stroke="#8842ab" cx="443.1318" cy="-388.4032" rx="4" ry="4"/>
<polygon fill="#8842ab" stroke="#8842ab" points="368.3472,-120.5259 361.9039,-111.6526 364.0078,-118.042 359.6684,-115.5581 359.6684,-115.5581 359.6684,-115.5581 364.0078,-118.042 357.4329,-119.4635 368.3472,-120.5259 368.3472,-120.5259"/>
</g>
<!-- Restaurant&#45;&gt;MealCategory -->
<g id="edge16" class="edge">
<title>Restaurant&#45;&gt;MealCategory</title>
<path fill="none" stroke="#bb2759" d="M408.0396,-384.4418C392.1717,-359.5765 369.1888,-319.4137 358.6877,-281 351.865,-256.0421 350.7941,-226.4998 351.1771,-205.2914"/>
<ellipse fill="none" stroke="#bb2759" cx="410.3363" cy="-387.9852" rx="4" ry="4"/>
<polygon fill="#bb2759" stroke="#bb2759" points="351.185,-205.0243 355.985,-195.1648 351.3361,-200.0266 351.4871,-195.0289 351.4871,-195.0289 351.4871,-195.0289 351.3361,-200.0266 346.9891,-194.8929 351.185,-205.0243 351.185,-205.0243"/>
</g>
<!-- Restaurant&#45;&gt;Menu -->
<g id="edge17" class="edge">
<title>Restaurant&#45;&gt;Menu</title>
<path fill="none" stroke="#64c06a" d="M476.5213,-398.976C493.241,-393.6017 510.7704,-385.4163 523.6877,-373 546.5963,-350.98 558.2275,-315.6463 563.8593,-290.9855"/>
<ellipse fill="none" stroke="#64c06a" cx="472.2358" cy="-400.2527" rx="4" ry="4"/>
<polygon fill="#64c06a" stroke="#64c06a" points="563.8713,-290.9276 570.3255,-282.0623 564.8962,-286.0338 565.921,-281.1399 565.921,-281.1399 565.921,-281.1399 564.8962,-286.0338 561.5165,-280.2176 563.8713,-290.9276 563.8713,-290.9276"/>
</g>
<!-- Restaurant&#45;&gt;Option -->
<g id="edge20" class="edge">
<title>Restaurant&#45;&gt;Option</title>
<path fill="none" stroke="#df2640" d="M370.7676,-402.7565C276.0407,-391.0513 89.6877,-364.4133 89.6877,-336 89.6877,-336 89.6877,-336 89.6877,-104 89.6877,-84.7594 90.447,-63.1121 91.2016,-46.3493"/>
<ellipse fill="none" stroke="#df2640" cx="374.8395" cy="-403.2552" rx="4" ry="4"/>
<polygon fill="#df2640" stroke="#df2640" points="91.2133,-46.1022 96.1837,-36.3274 91.451,-41.1078 91.6888,-36.1135 91.6888,-36.1135 91.6888,-36.1135 91.451,-41.1078 87.1939,-35.8995 91.2133,-46.1022 91.2133,-46.1022"/>
</g>
<!-- Restaurant&#45;&gt;Order -->
<g id="edge18" class="edge">
<title>Restaurant&#45;&gt;Order</title>
<path fill="none" stroke="#0b90c6" d="M381.7345,-393.6967C365.8241,-387.6836 347.7531,-380.4424 331.6877,-373 319.2746,-367.2495 305.9821,-360.2224 294.4721,-353.843"/>
<ellipse fill="none" stroke="#0b90c6" cx="385.6066" cy="-395.1445" rx="4" ry="4"/>
<polygon fill="#0b90c6" stroke="#0b90c6" points="294.3936,-353.7989 287.8777,-344.9788 290.0339,-351.3507 285.6743,-348.9025 285.6743,-348.9025 285.6743,-348.9025 290.0339,-351.3507 283.4709,-352.8261 294.3936,-353.7989 294.3936,-353.7989"/>
</g>
<!-- Restaurant&#45;&gt;OrderedMeal -->
<g id="edge19" class="edge">
<title>Restaurant&#45;&gt;OrderedMeal</title>
<path fill="none" stroke="#d7106a" d="M424.6877,-380.7818C424.6877,-355.1352 424.6877,-317.4714 424.6877,-291.6814"/>
<polygon fill="#d7106a" stroke="#d7106a" points="424.6878,-380.8042 420.1877,-390.8042 424.6878,-385.8042 424.6877,-390.8042 424.6877,-390.8042 424.6877,-390.8042 424.6878,-385.8042 429.1877,-390.8042 424.6878,-380.8042 424.6878,-380.8042"/>
<polygon fill="#d7106a" stroke="#d7106a" points="424.6878,-291.4251 429.1877,-281.4251 424.6878,-286.4251 424.6877,-281.4251 424.6877,-281.4251 424.6877,-281.4251 424.6878,-286.4251 420.1877,-281.4252 424.6878,-291.4251 424.6878,-291.4251"/>
</g>
<!-- Restaurant&#45;&gt;Attachinary::File -->
<g id="edge21" class="edge">
<title>Restaurant&#45;&gt;Attachinary::File</title>
<path fill="none" stroke="#9f7392" d="M480.2521,-405.3919C560.0718,-398.6591 697.6877,-380.5861 697.6877,-336 697.6877,-336 697.6877,-336 697.6877,-104 697.6877,-72.9859 669.9315,-51.1296 642.9605,-37.2127"/>
<ellipse fill="none" stroke="#9f7392" cx="476.2274" cy="-405.7205" rx="4" ry="4"/>
<polygon fill="#9f7392" stroke="#9f7392" points="642.8767,-37.1719 635.8545,-28.7494 638.3809,-34.9838 633.8852,-32.7956 633.8852,-32.7956 633.8852,-32.7956 638.3809,-34.9838 631.9158,-36.8418 642.8767,-37.1719 642.8767,-37.1719"/>
<text text-anchor="middle" x="728.8015" y="-215.8" font-family="Times,serif" font-size="14.00" fill="#000000">photo_files</text>
</g>
<!-- User -->
<g id="node13" class="node">
<title>User</title>
<ellipse fill="none" stroke="#000000" cx="424.6877" cy="-500.5" rx="27" ry="18"/>
<text text-anchor="middle" x="424.6877" y="-496.3" font-family="Times,serif" font-size="14.00" fill="#000000">User</text>
</g>
<!-- User&#45;&gt;Order -->
<g id="edge22" class="edge">
<title>User&#45;&gt;Order</title>
<path fill="none" stroke="#b3007e" d="M404.0803,-479.4446C373.74,-448.4447 317.2723,-390.7494 285.9907,-358.7878"/>
<ellipse fill="none" stroke="#b3007e" cx="407.032" cy="-482.4604" rx="4" ry="4"/>
<polygon fill="#b3007e" stroke="#b3007e" points="285.974,-358.7708 282.1954,-348.4765 282.4767,-355.1974 278.9794,-351.6241 278.9794,-351.6241 278.9794,-351.6241 282.4767,-355.1974 275.7634,-354.7717 285.974,-358.7708 285.974,-358.7708"/>
</g>
<!-- User&#45;&gt;OrderedMeal -->
<g id="edge24" class="edge">
<title>User&#45;&gt;OrderedMeal</title>
<path fill="none" stroke="#c7ce00" d="M462.0375,-498.1887C553.2142,-491.0749 775.2061,-464.0688 711.6877,-372 684.7129,-332.9004 556.1637,-295.4057 480.5655,-276.2365"/>
<polygon fill="#c7ce00" stroke="#c7ce00" points="461.8212,-498.2046 451.5162,-494.4552 456.8348,-498.5738 451.8485,-498.9429 451.8485,-498.9429 451.8485,-498.9429 456.8348,-498.5738 452.1807,-503.4306 461.8212,-498.2046 461.8212,-498.2046"/>
<polygon fill="#c7ce00" stroke="#c7ce00" points="480.4168,-276.1993 471.8117,-269.402 475.5669,-274.9831 470.7171,-273.7669 470.7171,-273.7669 470.7171,-273.7669 475.5669,-274.9831 469.6225,-278.1318 480.4168,-276.1993 480.4168,-276.1993"/>
</g>
<!-- User&#45;&gt;Restaurant -->
<g id="edge23" class="edge">
<title>User&#45;&gt;Restaurant</title>
<path fill="none" stroke="#eae3d8" d="M424.6877,-474.0044C424.6877,-462.4617 424.6877,-448.9188 424.6877,-437.1908"/>
<ellipse fill="none" stroke="#eae3d8" cx="424.6878" cy="-478.4225" rx="4" ry="4"/>
<polygon fill="#eae3d8" stroke="#eae3d8" points="424.6878,-437.0399 429.1877,-427.0399 424.6878,-432.0399 424.6877,-427.0399 424.6877,-427.0399 424.6877,-427.0399 424.6878,-432.0399 420.1877,-427.0399 424.6878,-437.0399 424.6878,-437.0399"/>
</g>
</g>
</svg>
