<?xml version="1.0" encoding="UTF-8" standalone="no"?>
<!DOCTYPE svg PUBLIC "-//W3C//DTD SVG 1.1//EN"
 "http://www.w3.org/Graphics/SVG/1.1/DTD/svg11.dtd">
<!-- Generated by graphviz version 2.40.1 (20161225.0304)
 -->
<!-- Title: models_diagram Pages: 1 -->
<svg width="1207pt" height="1663pt"
 viewBox="0.00 0.00 1207.09 1663.00" xmlns="http://www.w3.org/2000/svg" xmlns:xlink="http://www.w3.org/1999/xlink">
<g id="graph0" class="graph" transform="scale(1 1) rotate(0) translate(4 1659)">
<title>models_diagram</title>
<polygon fill="transparent" stroke="transparent" points="-4,4 -4,-1659 1203.0898,-1659 1203.0898,4 -4,4"/>
<!-- _diagram_info -->
<g id="node1" class="node">
<title>_diagram_info</title>
<text text-anchor="start" x="131.1746" y="-1500.6" font-family="Times,serif" font-size="13.00" fill="#000000">Models diagram</text>
<text text-anchor="start" x="131.1746" y="-1487.6" font-family="Times,serif" font-size="13.00" fill="#000000">Date: Feb 03 2017 &#45; 09:27</text>
<text text-anchor="start" x="131.1746" y="-1474.6" font-family="Times,serif" font-size="13.00" fill="#000000">Migration version: 20170203080428</text>
<text text-anchor="start" x="131.1746" y="-1461.6" font-family="Times,serif" font-size="13.00" fill="#000000">Generated by RailRoady 1.5.2</text>
<text text-anchor="start" x="131.1746" y="-1448.6" font-family="Times,serif" font-size="13.00" fill="#000000">http://railroady.prestonlee.com</text>
</g>
<!-- ApplicationRecord -->
<g id="node2" class="node">
<title>ApplicationRecord</title>
<ellipse fill="none" stroke="#000000" cx="425.8623" cy="-1478.5" rx="77.2916" ry="18"/>
<text text-anchor="middle" x="425.8623" y="-1474.3" font-family="Times,serif" font-size="14.00" fill="#000000">ApplicationRecord</text>
</g>
<!-- Meal -->
<g id="node3" class="node">
<title>Meal</title>
<path fill="none" stroke="#000000" d="M512,-179.5C512,-179.5 735.7246,-179.5 735.7246,-179.5 741.7246,-179.5 747.7246,-185.5 747.7246,-191.5 747.7246,-191.5 747.7246,-379.5 747.7246,-379.5 747.7246,-385.5 741.7246,-391.5 735.7246,-391.5 735.7246,-391.5 512,-391.5 512,-391.5 506,-391.5 500,-385.5 500,-379.5 500,-379.5 500,-191.5 500,-191.5 500,-185.5 506,-179.5 512,-179.5"/>
<text text-anchor="middle" x="623.8623" y="-376.3" font-family="Times,serif" font-size="14.00" fill="#000000">Meal</text>
<polyline fill="none" stroke="#000000" points="500,-369.5 747.7246,-369.5 "/>
<text text-anchor="start" x="508" y="-354.3" font-family="Times,serif" font-size="14.00" fill="#000000">meal_category_id :integer</text>
<text text-anchor="start" x="508" y="-340.3" font-family="Times,serif" font-size="14.00" fill="#000000">restaurant_id :integer</text>
<text text-anchor="start" x="508" y="-326.3" font-family="Times,serif" font-size="14.00" fill="#000000">category :integer</text>
<text text-anchor="start" x="508" y="-312.3" font-family="Times,serif" font-size="14.00" fill="#000000">name :character varying</text>
<text text-anchor="start" x="508" y="-298.3" font-family="Times,serif" font-size="14.00" fill="#000000">description :character varying</text>
<text text-anchor="start" x="508" y="-284.3" font-family="Times,serif" font-size="14.00" fill="#000000">price_cents :integer</text>
<text text-anchor="start" x="508" y="-270.3" font-family="Times,serif" font-size="14.00" fill="#000000">tax_rate :integer</text>
<text text-anchor="start" x="508" y="-256.3" font-family="Times,serif" font-size="14.00" fill="#000000">photo :character varying</text>
<text text-anchor="start" x="508" y="-242.3" font-family="Times,serif" font-size="14.00" fill="#000000">created_at :timestamp without time zone</text>
<text text-anchor="start" x="508" y="-228.3" font-family="Times,serif" font-size="14.00" fill="#000000">updated_at :timestamp without time zone</text>
<text text-anchor="start" x="508" y="-214.3" font-family="Times,serif" font-size="14.00" fill="#000000">active :boolean</text>
<text text-anchor="start" x="508" y="-200.3" font-family="Times,serif" font-size="14.00" fill="#000000">position :integer</text>
<text text-anchor="start" x="508" y="-186.3" font-family="Times,serif" font-size="14.00" fill="#000000">id :integer</text>
</g>
<!-- MealOption -->
<g id="node5" class="node">
<title>MealOption</title>
<path fill="none" stroke="#000000" d="M278,-14.5C278,-14.5 501.7246,-14.5 501.7246,-14.5 507.7246,-14.5 513.7246,-20.5 513.7246,-26.5 513.7246,-26.5 513.7246,-102.5 513.7246,-102.5 513.7246,-108.5 507.7246,-114.5 501.7246,-114.5 501.7246,-114.5 278,-114.5 278,-114.5 272,-114.5 266,-108.5 266,-102.5 266,-102.5 266,-26.5 266,-26.5 266,-20.5 272,-14.5 278,-14.5"/>
<text text-anchor="middle" x="389.8623" y="-99.3" font-family="Times,serif" font-size="14.00" fill="#000000">MealOption</text>
<polyline fill="none" stroke="#000000" points="266,-92.5 513.7246,-92.5 "/>
<text text-anchor="start" x="274" y="-77.3" font-family="Times,serif" font-size="14.00" fill="#000000">id :integer</text>
<text text-anchor="start" x="274" y="-63.3" font-family="Times,serif" font-size="14.00" fill="#000000">meal_id :integer</text>
<text text-anchor="start" x="274" y="-49.3" font-family="Times,serif" font-size="14.00" fill="#000000">option_id :integer</text>
<text text-anchor="start" x="274" y="-35.3" font-family="Times,serif" font-size="14.00" fill="#000000">created_at :timestamp without time zone</text>
<text text-anchor="start" x="274" y="-21.3" font-family="Times,serif" font-size="14.00" fill="#000000">updated_at :timestamp without time zone</text>
</g>
<!-- Meal&#45;&gt;MealOption -->
<g id="edge1" class="edge">
<title>Meal&#45;&gt;MealOption</title>
<path fill="none" stroke="#1ddd98" d="M505.4366,-173.6535C486.412,-155.6858 467.4375,-137.7655 450.5258,-121.7933"/>
<ellipse fill="none" stroke="#1ddd98" cx="508.4093" cy="-176.4611" rx="4" ry="4"/>
<polygon fill="#1ddd98" stroke="#1ddd98" points="450.1781,-121.4649 445.9978,-111.3271 446.543,-118.0318 442.908,-114.5987 442.908,-114.5987 442.908,-114.5987 446.543,-118.0318 439.8181,-117.8703 450.1781,-121.4649 450.1781,-121.4649"/>
</g>
<!-- Option -->
<g id="node8" class="node">
<title>Option</title>
<path fill="none" stroke="#000000" d="M12,-14.5C12,-14.5 235.7246,-14.5 235.7246,-14.5 241.7246,-14.5 247.7246,-20.5 247.7246,-26.5 247.7246,-26.5 247.7246,-102.5 247.7246,-102.5 247.7246,-108.5 241.7246,-114.5 235.7246,-114.5 235.7246,-114.5 12,-114.5 12,-114.5 6,-114.5 0,-108.5 0,-102.5 0,-102.5 0,-26.5 0,-26.5 0,-20.5 6,-14.5 12,-14.5"/>
<text text-anchor="middle" x="123.8623" y="-99.3" font-family="Times,serif" font-size="14.00" fill="#000000">Option</text>
<polyline fill="none" stroke="#000000" points="0,-92.5 247.7246,-92.5 "/>
<text text-anchor="start" x="8" y="-77.3" font-family="Times,serif" font-size="14.00" fill="#000000">id :integer</text>
<text text-anchor="start" x="8" y="-63.3" font-family="Times,serif" font-size="14.00" fill="#000000">name :character varying</text>
<text text-anchor="start" x="8" y="-49.3" font-family="Times,serif" font-size="14.00" fill="#000000">restaurant_id :integer</text>
<text text-anchor="start" x="8" y="-35.3" font-family="Times,serif" font-size="14.00" fill="#000000">created_at :timestamp without time zone</text>
<text text-anchor="start" x="8" y="-21.3" font-family="Times,serif" font-size="14.00" fill="#000000">updated_at :timestamp without time zone</text>
</g>
<!-- Meal&#45;&gt;Option -->
<g id="edge2" class="edge">
<title>Meal&#45;&gt;Option</title>
<path fill="none" stroke="#68eebd" d="M490.3089,-230.381C420.4136,-201.0731 333.6317,-163.9587 256.8623,-129 249.8011,-125.7845 242.5527,-122.4289 235.2598,-119.0111"/>
<polygon fill="#68eebd" stroke="#68eebd" points="490.3952,-230.4171 497.8802,-238.4311 495.007,-232.3488 499.6188,-234.2805 499.6188,-234.2805 499.6188,-234.2805 495.007,-232.3488 501.3573,-230.1299 490.3952,-230.4171 490.3952,-230.4171"/>
<polygon fill="#68eebd" stroke="#68eebd" points="235.0559,-118.9151 227.9263,-110.5833 230.5325,-116.7848 226.009,-114.6544 226.009,-114.6544 226.009,-114.6544 230.5325,-116.7848 224.0917,-118.7256 235.0559,-118.9151 235.0559,-118.9151"/>
</g>
<!-- OrderElement -->
<g id="node10" class="node">
<title>OrderElement</title>
<path fill="none" stroke="#000000" d="M544,-.5C544,-.5 767.7246,-.5 767.7246,-.5 773.7246,-.5 779.7246,-6.5 779.7246,-12.5 779.7246,-12.5 779.7246,-116.5 779.7246,-116.5 779.7246,-122.5 773.7246,-128.5 767.7246,-128.5 767.7246,-128.5 544,-128.5 544,-128.5 538,-128.5 532,-122.5 532,-116.5 532,-116.5 532,-12.5 532,-12.5 532,-6.5 538,-.5 544,-.5"/>
<text text-anchor="middle" x="655.8623" y="-113.3" font-family="Times,serif" font-size="14.00" fill="#000000">OrderElement</text>
<polyline fill="none" stroke="#000000" points="532,-106.5 779.7246,-106.5 "/>
<text text-anchor="start" x="540" y="-91.3" font-family="Times,serif" font-size="14.00" fill="#000000">element_id :integer</text>
<text text-anchor="start" x="540" y="-77.3" font-family="Times,serif" font-size="14.00" fill="#000000">order_id :integer</text>
<text text-anchor="start" x="540" y="-63.3" font-family="Times,serif" font-size="14.00" fill="#000000">element_type :character varying</text>
<text text-anchor="start" x="540" y="-49.3" font-family="Times,serif" font-size="14.00" fill="#000000">id :integer</text>
<text text-anchor="start" x="540" y="-35.3" font-family="Times,serif" font-size="14.00" fill="#000000">quantity :integer</text>
<text text-anchor="start" x="540" y="-21.3" font-family="Times,serif" font-size="14.00" fill="#000000">created_at :timestamp without time zone</text>
<text text-anchor="start" x="540" y="-7.3" font-family="Times,serif" font-size="14.00" fill="#000000">updated_at :timestamp without time zone</text>
</g>
<!-- Meal&#45;&gt;OrderElement -->
<g id="edge3" class="edge">
<title>Meal&#45;&gt;OrderElement</title>
<path fill="none" stroke="#13d30a" d="M640.4244,-171.1179C642.0052,-160.2007 643.5786,-149.334 645.0829,-138.9449"/>
<ellipse fill="none" stroke="#13d30a" cx="639.8263" cy="-175.2489" rx="4" ry="4"/>
<polygon fill="#13d30a" stroke="#13d30a" points="645.1288,-138.6276 651.0155,-129.3757 645.8454,-133.6792 646.5619,-128.7308 646.5619,-128.7308 646.5619,-128.7308 645.8454,-133.6792 642.1084,-128.0859 645.1288,-138.6276 645.1288,-138.6276"/>
</g>
<!-- Attachinary::File -->
<g id="node14" class="node">
<title>Attachinary::File</title>
<ellipse fill="none" stroke="#000000" cx="973.8623" cy="-64.5" rx="70.5427" ry="18"/>
<text text-anchor="middle" x="973.8623" y="-60.3" font-family="Times,serif" font-size="14.00" fill="#000000">Attachinary::File</text>
</g>
<!-- Meal&#45;&gt;Attachinary::File -->
<g id="edge4" class="edge">
<title>Meal&#45;&gt;Attachinary::File</title>
<path fill="none" stroke="#dcdf62" d="M754.5533,-202.978C820.495,-161.3405 895.4215,-114.0298 938.4184,-86.8803"/>
<ellipse fill="none" stroke="#dcdf62" cx="751.134" cy="-205.137" rx="4" ry="4"/>
<polygon fill="#dcdf62" stroke="#dcdf62" points="938.6387,-86.7413 949.4967,-85.2072 942.8664,-84.0717 947.0941,-81.4022 947.0941,-81.4022 947.0941,-81.4022 942.8664,-84.0717 944.6916,-77.5972 938.6387,-86.7413 938.6387,-86.7413"/>
<text text-anchor="middle" x="871.9761" y="-149.8" font-family="Times,serif" font-size="14.00" fill="#000000">photo_files</text>
</g>
<!-- MealCategory -->
<g id="node4" class="node">
<title>MealCategory</title>
<path fill="none" stroke="#000000" d="M512,-429.5C512,-429.5 735.7246,-429.5 735.7246,-429.5 741.7246,-429.5 747.7246,-435.5 747.7246,-441.5 747.7246,-441.5 747.7246,-531.5 747.7246,-531.5 747.7246,-537.5 741.7246,-543.5 735.7246,-543.5 735.7246,-543.5 512,-543.5 512,-543.5 506,-543.5 500,-537.5 500,-531.5 500,-531.5 500,-441.5 500,-441.5 500,-435.5 506,-429.5 512,-429.5"/>
<text text-anchor="middle" x="623.8623" y="-528.3" font-family="Times,serif" font-size="14.00" fill="#000000">MealCategory</text>
<polyline fill="none" stroke="#000000" points="500,-521.5 747.7246,-521.5 "/>
<text text-anchor="start" x="508" y="-506.3" font-family="Times,serif" font-size="14.00" fill="#000000">id :integer</text>
<text text-anchor="start" x="508" y="-492.3" font-family="Times,serif" font-size="14.00" fill="#000000">name :character varying</text>
<text text-anchor="start" x="508" y="-478.3" font-family="Times,serif" font-size="14.00" fill="#000000">restaurant_id :integer</text>
<text text-anchor="start" x="508" y="-464.3" font-family="Times,serif" font-size="14.00" fill="#000000">position :integer</text>
<text text-anchor="start" x="508" y="-450.3" font-family="Times,serif" font-size="14.00" fill="#000000">created_at :timestamp without time zone</text>
<text text-anchor="start" x="508" y="-436.3" font-family="Times,serif" font-size="14.00" fill="#000000">updated_at :timestamp without time zone</text>
</g>
<!-- MealCategory&#45;&gt;Meal -->
<g id="edge5" class="edge">
<title>MealCategory&#45;&gt;Meal</title>
<path fill="none" stroke="#457772" d="M623.8623,-421.2494C623.8623,-415.0341 623.8623,-408.6129 623.8623,-402.099"/>
<ellipse fill="none" stroke="#457772" cx="623.8624" cy="-425.4391" rx="4" ry="4"/>
<polygon fill="#457772" stroke="#457772" points="623.8624,-401.803 628.3623,-391.8029 623.8624,-396.803 623.8623,-391.803 623.8623,-391.803 623.8623,-391.803 623.8624,-396.803 619.3623,-391.803 623.8624,-401.803 623.8624,-401.803"/>
</g>
<!-- Menu -->
<g id="node6" class="node">
<title>Menu</title>
<path fill="none" stroke="#000000" d="M873,-594.5C873,-594.5 1096.7246,-594.5 1096.7246,-594.5 1102.7246,-594.5 1108.7246,-600.5 1108.7246,-606.5 1108.7246,-606.5 1108.7246,-710.5 1108.7246,-710.5 1108.7246,-716.5 1102.7246,-722.5 1096.7246,-722.5 1096.7246,-722.5 873,-722.5 873,-722.5 867,-722.5 861,-716.5 861,-710.5 861,-710.5 861,-606.5 861,-606.5 861,-600.5 867,-594.5 873,-594.5"/>
<text text-anchor="middle" x="984.8623" y="-707.3" font-family="Times,serif" font-size="14.00" fill="#000000">Menu</text>
<polyline fill="none" stroke="#000000" points="861,-700.5 1108.7246,-700.5 "/>
<text text-anchor="start" x="869" y="-685.3" font-family="Times,serif" font-size="14.00" fill="#000000">updated_at :timestamp without time zone</text>
<text text-anchor="start" x="869" y="-671.3" font-family="Times,serif" font-size="14.00" fill="#000000">name :character varying</text>
<text text-anchor="start" x="869" y="-657.3" font-family="Times,serif" font-size="14.00" fill="#000000">created_at :timestamp without time zone</text>
<text text-anchor="start" x="869" y="-643.3" font-family="Times,serif" font-size="14.00" fill="#000000">id :integer</text>
<text text-anchor="start" x="869" y="-629.3" font-family="Times,serif" font-size="14.00" fill="#000000">price_cents :integer</text>
<text text-anchor="start" x="869" y="-615.3" font-family="Times,serif" font-size="14.00" fill="#000000">tax_rate :integer</text>
<text text-anchor="start" x="869" y="-601.3" font-family="Times,serif" font-size="14.00" fill="#000000">restaurant_id :integer</text>
</g>
<!-- Menu&#45;&gt;MealCategory -->
<g id="edge7" class="edge">
<title>Menu&#45;&gt;MealCategory</title>
<path fill="none" stroke="#b463ec" d="M851.4694,-594.9444C819.2979,-579.6161 784.9796,-563.265 753.0063,-548.0312"/>
<polygon fill="#b463ec" stroke="#b463ec" points="851.8515,-595.1264 858.9436,-603.4902 856.3653,-597.277 860.8792,-599.4277 860.8792,-599.4277 860.8792,-599.4277 856.3653,-597.277 862.8148,-595.3652 851.8515,-595.1264 851.8515,-595.1264"/>
<polygon fill="#b463ec" stroke="#b463ec" points="752.6384,-547.856 745.5463,-539.4922 748.1246,-545.7053 743.6107,-543.5547 743.6107,-543.5547 743.6107,-543.5547 748.1246,-545.7053 741.6751,-547.6171 752.6384,-547.856 752.6384,-547.856"/>
</g>
<!-- MenuMealCategory -->
<g id="node7" class="node">
<title>MenuMealCategory</title>
<path fill="none" stroke="#000000" d="M835,-429.5C835,-429.5 1058.7246,-429.5 1058.7246,-429.5 1064.7246,-429.5 1070.7246,-435.5 1070.7246,-441.5 1070.7246,-441.5 1070.7246,-531.5 1070.7246,-531.5 1070.7246,-537.5 1064.7246,-543.5 1058.7246,-543.5 1058.7246,-543.5 835,-543.5 835,-543.5 829,-543.5 823,-537.5 823,-531.5 823,-531.5 823,-441.5 823,-441.5 823,-435.5 829,-429.5 835,-429.5"/>
<text text-anchor="middle" x="946.8623" y="-528.3" font-family="Times,serif" font-size="14.00" fill="#000000">MenuMealCategory</text>
<polyline fill="none" stroke="#000000" points="823,-521.5 1070.7246,-521.5 "/>
<text text-anchor="start" x="831" y="-506.3" font-family="Times,serif" font-size="14.00" fill="#000000">id :integer</text>
<text text-anchor="start" x="831" y="-492.3" font-family="Times,serif" font-size="14.00" fill="#000000">menu_id :integer</text>
<text text-anchor="start" x="831" y="-478.3" font-family="Times,serif" font-size="14.00" fill="#000000">meal_category_id :integer</text>
<text text-anchor="start" x="831" y="-464.3" font-family="Times,serif" font-size="14.00" fill="#000000">quantity :integer</text>
<text text-anchor="start" x="831" y="-450.3" font-family="Times,serif" font-size="14.00" fill="#000000">created_at :timestamp without time zone</text>
<text text-anchor="start" x="831" y="-436.3" font-family="Times,serif" font-size="14.00" fill="#000000">updated_at :timestamp without time zone</text>
</g>
<!-- Menu&#45;&gt;MenuMealCategory -->
<g id="edge6" class="edge">
<title>Menu&#45;&gt;MenuMealCategory</title>
<path fill="none" stroke="#a1f451" d="M968.9647,-586.5423C966.5359,-575.549 964.0376,-564.241 961.6344,-553.3633"/>
<ellipse fill="none" stroke="#a1f451" cx="969.8496" cy="-590.5477" rx="4" ry="4"/>
<polygon fill="#a1f451" stroke="#a1f451" points="961.6162,-553.2805 963.8529,-542.5451 960.5375,-548.3982 959.4589,-543.5159 959.4589,-543.5159 959.4589,-543.5159 960.5375,-548.3982 955.0648,-544.4868 961.6162,-553.2805 961.6162,-553.2805"/>
</g>
<!-- Menu&#45;&gt;OrderElement -->
<g id="edge8" class="edge">
<title>Menu&#45;&gt;OrderElement</title>
<path fill="none" stroke="#72115c" d="M1055.7397,-587.8706C1065.6194,-574.2912 1074.2871,-559.451 1079.8623,-544 1097.2101,-495.923 1093.748,-478.1888 1079.8623,-429 1039.9154,-287.4917 1022.2015,-238.1987 906.8623,-147 873.0521,-120.2663 830.2449,-102.0428 789.6008,-89.684"/>
<ellipse fill="none" stroke="#72115c" cx="1053.2061" cy="-591.2369" rx="4" ry="4"/>
<polygon fill="#72115c" stroke="#72115c" points="789.4669,-89.6447 781.1427,-82.5062 784.67,-88.2341 779.8731,-86.8234 779.8731,-86.8234 779.8731,-86.8234 784.67,-88.2341 778.6035,-91.1406 789.4669,-89.6447 789.4669,-89.6447"/>
</g>
<!-- Order -->
<g id="node9" class="node">
<title>Order</title>
<path fill="none" stroke="#000000" d="M309.1172,-760.5C309.1172,-760.5 540.6074,-760.5 540.6074,-760.5 546.6074,-760.5 552.6074,-766.5 552.6074,-772.5 552.6074,-772.5 552.6074,-974.5 552.6074,-974.5 552.6074,-980.5 546.6074,-986.5 540.6074,-986.5 540.6074,-986.5 309.1172,-986.5 309.1172,-986.5 303.1172,-986.5 297.1172,-980.5 297.1172,-974.5 297.1172,-974.5 297.1172,-772.5 297.1172,-772.5 297.1172,-766.5 303.1172,-760.5 309.1172,-760.5"/>
<text text-anchor="middle" x="424.8623" y="-971.3" font-family="Times,serif" font-size="14.00" fill="#000000">Order</text>
<polyline fill="none" stroke="#000000" points="297.1172,-964.5 552.6074,-964.5 "/>
<text text-anchor="start" x="305.1172" y="-949.3" font-family="Times,serif" font-size="14.00" fill="#000000">preparation_time :integer</text>
<text text-anchor="start" x="305.1172" y="-935.3" font-family="Times,serif" font-size="14.00" fill="#000000">user_id :integer</text>
<text text-anchor="start" x="305.1172" y="-921.3" font-family="Times,serif" font-size="14.00" fill="#000000">restaurant_id :integer</text>
<text text-anchor="start" x="305.1172" y="-907.3" font-family="Times,serif" font-size="14.00" fill="#000000">user_rating :integer</text>
<text text-anchor="start" x="305.1172" y="-893.3" font-family="Times,serif" font-size="14.00" fill="#000000">user_comment :character varying</text>
<text text-anchor="start" x="305.1172" y="-879.3" font-family="Times,serif" font-size="14.00" fill="#000000">paid_at :timestamp without time zone</text>
<text text-anchor="start" x="305.1172" y="-865.3" font-family="Times,serif" font-size="14.00" fill="#000000">ready_at :timestamp without time zone</text>
<text text-anchor="start" x="305.1172" y="-851.3" font-family="Times,serif" font-size="14.00" fill="#000000">created_at :timestamp without time zone</text>
<text text-anchor="start" x="305.1172" y="-837.3" font-family="Times,serif" font-size="14.00" fill="#000000">updated_at :timestamp without time zone</text>
<text text-anchor="start" x="305.1172" y="-823.3" font-family="Times,serif" font-size="14.00" fill="#000000">delivered_at :timestamp without time zone</text>
<text text-anchor="start" x="305.1172" y="-809.3" font-family="Times,serif" font-size="14.00" fill="#000000">located_at :timestamp without time zone</text>
<text text-anchor="start" x="305.1172" y="-795.3" font-family="Times,serif" font-size="14.00" fill="#000000">latitude :double precision</text>
<text text-anchor="start" x="305.1172" y="-781.3" font-family="Times,serif" font-size="14.00" fill="#000000">longitude :double precision</text>
<text text-anchor="start" x="305.1172" y="-767.3" font-family="Times,serif" font-size="14.00" fill="#000000">id :integer</text>
</g>
<!-- Order&#45;&gt;Meal -->
<g id="edge10" class="edge">
<title>Order&#45;&gt;Meal</title>
<path fill="none" stroke="#31b8b6" d="M434.9494,-750.2839C445.5429,-638.9095 464.3641,-484.2182 490.8623,-429 495.588,-419.1523 501.225,-409.5145 507.4697,-400.1891"/>
<polygon fill="#31b8b6" stroke="#31b8b6" points="434.949,-750.2898 429.5325,-759.8246 434.4809,-755.2678 434.0127,-760.2459 434.0127,-760.2459 434.0127,-760.2459 434.4809,-755.2678 438.493,-760.6671 434.949,-750.2898 434.949,-750.2898"/>
<polygon fill="#31b8b6" stroke="#31b8b6" points="507.6545,-399.9236 517.0604,-394.2863 510.5107,-395.8197 513.3669,-391.7157 513.3669,-391.7157 513.3669,-391.7157 510.5107,-395.8197 509.6733,-389.1452 507.6545,-399.9236 507.6545,-399.9236"/>
</g>
<!-- Order&#45;&gt;MealCategory -->
<g id="edge11" class="edge">
<title>Order&#45;&gt;MealCategory</title>
<path fill="none" stroke="#a37b22" d="M464.3521,-750.4935C465.2035,-747.6374 466.0414,-744.8031 466.8623,-742 490.1311,-662.5414 467.241,-629.7298 514.8623,-562 517.5031,-558.2441 520.3941,-554.6151 523.4802,-551.1161"/>
<polygon fill="#a37b22" stroke="#a37b22" points="464.2904,-750.6986 457.1007,-758.9786 462.8502,-755.4867 461.41,-760.2748 461.41,-760.2748 461.41,-760.2748 462.8502,-755.4867 465.7192,-761.571 464.2904,-750.6986 464.2904,-750.6986"/>
<polygon fill="#a37b22" stroke="#a37b22" points="523.6556,-550.9307 533.7961,-546.757 527.0911,-547.2978 530.5266,-543.665 530.5266,-543.665 530.5266,-543.665 527.0911,-547.2978 527.2571,-540.5731 523.6556,-550.9307 523.6556,-550.9307"/>
</g>
<!-- Order&#45;&gt;OrderElement -->
<g id="edge12" class="edge">
<title>Order&#45;&gt;OrderElement</title>
<path fill="none" stroke="#2f227e" d="M417.2444,-752.1546C415.8694,-721.5986 414.8623,-688.8568 414.8623,-658.5 414.8623,-658.5 414.8623,-658.5 414.8623,-285.5 414.8623,-227.3503 449.4747,-219.8466 490.8623,-179 506.68,-163.3891 524.8496,-148.4538 543.2193,-134.8256"/>
<ellipse fill="none" stroke="#2f227e" cx="417.4361" cy="-756.2948" rx="4" ry="4"/>
<polygon fill="#2f227e" stroke="#2f227e" points="543.5895,-134.5552 554.3194,-132.2925 547.6276,-131.6067 551.6658,-128.6582 551.6658,-128.6582 551.6658,-128.6582 547.6276,-131.6067 549.0121,-125.0239 543.5895,-134.5552 543.5895,-134.5552"/>
</g>
<!-- OrderedMeal -->
<g id="node11" class="node">
<title>OrderedMeal</title>
<path fill="none" stroke="#000000" d="M569,-594.5C569,-594.5 792.7246,-594.5 792.7246,-594.5 798.7246,-594.5 804.7246,-600.5 804.7246,-606.5 804.7246,-606.5 804.7246,-710.5 804.7246,-710.5 804.7246,-716.5 798.7246,-722.5 792.7246,-722.5 792.7246,-722.5 569,-722.5 569,-722.5 563,-722.5 557,-716.5 557,-710.5 557,-710.5 557,-606.5 557,-606.5 557,-600.5 563,-594.5 569,-594.5"/>
<text text-anchor="middle" x="680.8623" y="-707.3" font-family="Times,serif" font-size="14.00" fill="#000000">OrderedMeal</text>
<polyline fill="none" stroke="#000000" points="557,-700.5 804.7246,-700.5 "/>
<text text-anchor="start" x="565" y="-685.3" font-family="Times,serif" font-size="14.00" fill="#000000">created_at :timestamp without time zone</text>
<text text-anchor="start" x="565" y="-671.3" font-family="Times,serif" font-size="14.00" fill="#000000">order_id :integer</text>
<text text-anchor="start" x="565" y="-657.3" font-family="Times,serif" font-size="14.00" fill="#000000">meal_id :integer</text>
<text text-anchor="start" x="565" y="-643.3" font-family="Times,serif" font-size="14.00" fill="#000000">id :integer</text>
<text text-anchor="start" x="565" y="-629.3" font-family="Times,serif" font-size="14.00" fill="#000000">updated_at :timestamp without time zone</text>
<text text-anchor="start" x="565" y="-615.3" font-family="Times,serif" font-size="14.00" fill="#000000">quantity :integer</text>
<text text-anchor="start" x="565" y="-601.3" font-family="Times,serif" font-size="14.00" fill="#000000">option_id :integer</text>
</g>
<!-- Order&#45;&gt;OrderedMeal -->
<g id="edge9" class="edge">
<title>Order&#45;&gt;OrderedMeal</title>
<path fill="none" stroke="#3e1649" d="M559.0564,-760.7979C571.8069,-750.0895 584.4751,-739.4502 596.5536,-729.3061"/>
<ellipse fill="none" stroke="#3e1649" cx="555.9254" cy="-763.4275" rx="4" ry="4"/>
<polygon fill="#3e1649" stroke="#3e1649" points="596.743,-729.1471 607.2947,-726.1618 600.5718,-725.9315 604.4006,-722.7159 604.4006,-722.7159 604.4006,-722.7159 600.5718,-725.9315 601.5066,-719.2699 596.743,-729.1471 596.743,-729.1471"/>
</g>
<!-- Element -->
<g id="node15" class="node">
<title>Element</title>
<ellipse fill="none" stroke="#000000" cx="346.8623" cy="-658.5" rx="39.6472" ry="18"/>
<text text-anchor="middle" x="346.8623" y="-654.3" font-family="Times,serif" font-size="14.00" fill="#000000">Element</text>
</g>
<!-- Order&#45;&gt;Element -->
<g id="edge13" class="edge">
<title>Order&#45;&gt;Element</title>
<path fill="none" stroke="#bb836d" d="M380.3342,-750.7622C371.5173,-726.4592 363.0851,-703.2168 356.8897,-686.1396"/>
<polygon fill="#bb836d" stroke="#bb836d" points="380.396,-750.9329 379.5763,-761.8681 382.1013,-755.6331 383.8065,-760.3334 383.8065,-760.3334 383.8065,-760.3334 382.1013,-755.6331 388.0367,-758.7987 380.396,-750.9329 380.396,-750.9329"/>
<polygon fill="#bb836d" stroke="#bb836d" points="356.7482,-685.7494 357.568,-674.8142 355.043,-681.0492 353.3377,-676.3489 353.3377,-676.3489 353.3377,-676.3489 355.043,-681.0492 349.1075,-677.8836 356.7482,-685.7494 356.7482,-685.7494"/>
</g>
<!-- OrderedMeal&#45;&gt;MealCategory -->
<g id="edge14" class="edge">
<title>OrderedMeal&#45;&gt;MealCategory</title>
<path fill="none" stroke="#d2f585" d="M657.0159,-586.5423C653.1497,-574.8759 649.1661,-562.8552 645.36,-551.3704"/>
<ellipse fill="none" stroke="#d2f585" cx="658.3793" cy="-590.6566" rx="4" ry="4"/>
<ellipse fill="#d2f585" stroke="#d2f585" cx="644.0154" cy="-547.3129" rx="4" ry="4"/>
</g>
<!-- Restaurant -->
<g id="node12" class="node">
<title>Restaurant</title>
<path fill="none" stroke="#000000" d="M569,-1024.5C569,-1024.5 792.7246,-1024.5 792.7246,-1024.5 798.7246,-1024.5 804.7246,-1030.5 804.7246,-1036.5 804.7246,-1036.5 804.7246,-1252.5 804.7246,-1252.5 804.7246,-1258.5 798.7246,-1264.5 792.7246,-1264.5 792.7246,-1264.5 569,-1264.5 569,-1264.5 563,-1264.5 557,-1258.5 557,-1252.5 557,-1252.5 557,-1036.5 557,-1036.5 557,-1030.5 563,-1024.5 569,-1024.5"/>
<text text-anchor="middle" x="680.8623" y="-1249.3" font-family="Times,serif" font-size="14.00" fill="#000000">Restaurant</text>
<polyline fill="none" stroke="#000000" points="557,-1242.5 804.7246,-1242.5 "/>
<text text-anchor="start" x="565" y="-1227.3" font-family="Times,serif" font-size="14.00" fill="#000000">preparation_time :integer</text>
<text text-anchor="start" x="565" y="-1213.3" font-family="Times,serif" font-size="14.00" fill="#000000">name :character varying</text>
<text text-anchor="start" x="565" y="-1199.3" font-family="Times,serif" font-size="14.00" fill="#000000">address :character varying</text>
<text text-anchor="start" x="565" y="-1185.3" font-family="Times,serif" font-size="14.00" fill="#000000">category :integer</text>
<text text-anchor="start" x="565" y="-1171.3" font-family="Times,serif" font-size="14.00" fill="#000000">on_duty :boolean</text>
<text text-anchor="start" x="565" y="-1157.3" font-family="Times,serif" font-size="14.00" fill="#000000">shift :character varying</text>
<text text-anchor="start" x="565" y="-1143.3" font-family="Times,serif" font-size="14.00" fill="#000000">description :character varying</text>
<text text-anchor="start" x="565" y="-1129.3" font-family="Times,serif" font-size="14.00" fill="#000000">photo :character varying</text>
<text text-anchor="start" x="565" y="-1115.3" font-family="Times,serif" font-size="14.00" fill="#000000">user_id :integer</text>
<text text-anchor="start" x="565" y="-1101.3" font-family="Times,serif" font-size="14.00" fill="#000000">created_at :timestamp without time zone</text>
<text text-anchor="start" x="565" y="-1087.3" font-family="Times,serif" font-size="14.00" fill="#000000">updated_at :timestamp without time zone</text>
<text text-anchor="start" x="565" y="-1073.3" font-family="Times,serif" font-size="14.00" fill="#000000">latitude :double precision</text>
<text text-anchor="start" x="565" y="-1059.3" font-family="Times,serif" font-size="14.00" fill="#000000">longitude :double precision</text>
<text text-anchor="start" x="565" y="-1045.3" font-family="Times,serif" font-size="14.00" fill="#000000">facebook_url :character varying</text>
<text text-anchor="start" x="565" y="-1031.3" font-family="Times,serif" font-size="14.00" fill="#000000">id :integer</text>
</g>
<!-- Restaurant&#45;&gt;Meal -->
<g id="edge15" class="edge">
<title>Restaurant&#45;&gt;Meal</title>
<path fill="none" stroke="#b4ccea" d="M741.8974,-1016.8699C787.649,-905.9693 838.4649,-740.5661 813.8623,-594 801.0184,-517.4847 796.754,-495.5448 756.8623,-429 750.9269,-419.0989 744.2235,-409.2977 737.0606,-399.7444"/>
<ellipse fill="none" stroke="#b4ccea" cx="740.2895" cy="-1020.7342" rx="4" ry="4"/>
<polygon fill="#b4ccea" stroke="#b4ccea" points="737.035,-399.711 734.511,-389.0395 733.9888,-395.746 730.9425,-391.7811 730.9425,-391.7811 730.9425,-391.7811 733.9888,-395.746 727.3741,-394.5227 737.035,-399.711 737.035,-399.711"/>
</g>
<!-- Restaurant&#45;&gt;MealCategory -->
<g id="edge16" class="edge">
<title>Restaurant&#45;&gt;MealCategory</title>
<path fill="none" stroke="#215352" d="M643.33,-1016.2617C620.8256,-941.2018 590.9985,-844.804 561.8623,-760 556.1493,-743.3718 551.025,-740.2955 547.8623,-723 537.5492,-666.6019 530.4981,-648.6406 547.8623,-594 552.4903,-579.437 559.8843,-565.1487 568.2841,-551.9849"/>
<ellipse fill="none" stroke="#215352" cx="644.6132" cy="-1020.548" rx="4" ry="4"/>
<polygon fill="#215352" stroke="#215352" points="568.3879,-551.8289 577.6759,-545.9992 571.1591,-547.667 573.9302,-543.5052 573.9302,-543.5052 573.9302,-543.5052 571.1591,-547.667 570.1845,-541.0112 568.3879,-551.8289 568.3879,-551.8289"/>
</g>
<!-- Restaurant&#45;&gt;Menu -->
<g id="edge17" class="edge">
<title>Restaurant&#45;&gt;Menu</title>
<path fill="none" stroke="#323596" d="M810.8684,-1047.4305C824.0137,-1034.4032 836.3629,-1020.4992 846.8623,-1006 907.893,-921.7197 946.6015,-806.7328 967.0128,-732.5418"/>
<ellipse fill="none" stroke="#323596" cx="807.6444" cy="-1050.565" rx="4" ry="4"/>
<polygon fill="#323596" stroke="#323596" points="967.0365,-732.4539 973.9952,-723.9788 968.3442,-727.6279 969.6518,-722.8019 969.6518,-722.8019 969.6518,-722.8019 968.3442,-727.6279 965.3084,-721.6251 967.0365,-732.4539 967.0365,-732.4539"/>
</g>
<!-- Restaurant&#45;&gt;Option -->
<g id="edge20" class="edge">
<title>Restaurant&#45;&gt;Option</title>
<path fill="none" stroke="#997aa5" d="M548.9588,-1125.567C461.5987,-1105.937 351.7285,-1066.3426 287.8623,-987 255.7915,-947.1576 268.8623,-924.6464 268.8623,-873.5 268.8623,-873.5 268.8623,-873.5 268.8623,-285.5 268.8623,-222.2966 226.8914,-163.1319 188.1111,-121.9546"/>
<ellipse fill="none" stroke="#997aa5" cx="552.8984" cy="-1126.4322" rx="4" ry="4"/>
<polygon fill="#997aa5" stroke="#997aa5" points="188.1008,-121.9439 184.4141,-111.6163 184.6355,-118.3395 181.1701,-114.7351 181.1701,-114.7351 181.1701,-114.7351 184.6355,-118.3395 177.9262,-117.8539 188.1008,-121.9439 188.1008,-121.9439"/>
</g>
<!-- Restaurant&#45;&gt;Order -->
<g id="edge18" class="edge">
<title>Restaurant&#45;&gt;Order</title>
<path fill="none" stroke="#2f83a4" d="M561.8686,-1018.534C554.1515,-1010.3648 546.3906,-1002.1491 538.6987,-994.0065"/>
<ellipse fill="none" stroke="#2f83a4" cx="564.7122" cy="-1021.5442" rx="4" ry="4"/>
<polygon fill="#2f83a4" stroke="#2f83a4" points="538.5244,-993.822 534.9286,-983.4624 535.0909,-990.1873 531.6574,-986.5526 531.6574,-986.5526 531.6574,-986.5526 535.0909,-990.1873 528.3861,-989.6427 538.5244,-993.822 538.5244,-993.822"/>
</g>
<!-- Restaurant&#45;&gt;OrderedMeal -->
<g id="edge19" class="edge">
<title>Restaurant&#45;&gt;OrderedMeal</title>
<path fill="none" stroke="#c06985" d="M680.8623,-1014.1768C680.8623,-924.1144 680.8623,-807.53 680.8623,-732.8592"/>
<polygon fill="#c06985" stroke="#c06985" points="680.8624,-1014.3651 676.3623,-1024.3651 680.8624,-1019.3651 680.8623,-1024.3651 680.8623,-1024.3651 680.8623,-1024.3651 680.8624,-1019.3651 685.3623,-1024.3652 680.8624,-1014.3651 680.8624,-1014.3651"/>
<polygon fill="#c06985" stroke="#c06985" points="680.8624,-732.6081 685.3623,-722.6081 680.8624,-727.6081 680.8623,-722.6081 680.8623,-722.6081 680.8623,-722.6081 680.8624,-727.6081 676.3623,-722.6082 680.8624,-732.6081 680.8624,-732.6081"/>
</g>
<!-- Restaurant&#45;&gt;Attachinary::File -->
<g id="edge21" class="edge">
<title>Restaurant&#45;&gt;Attachinary::File</title>
<path fill="none" stroke="#fd66c1" d="M812.8449,-1123.6971C947.5135,-1094.0771 1136.8623,-1025.4185 1136.8623,-873.5 1136.8623,-873.5 1136.8623,-873.5 1136.8623,-285.5 1136.8623,-198.9235 1054.8416,-123.9692 1007.1649,-87.7132"/>
<ellipse fill="none" stroke="#fd66c1" cx="808.7738" cy="-1124.5765" rx="4" ry="4"/>
<polygon fill="#fd66c1" stroke="#fd66c1" points="1006.9913,-87.5838 1001.6634,-77.9992 1002.9825,-84.5954 998.9738,-81.607 998.9738,-81.607 998.9738,-81.607 1002.9825,-84.5954 996.2843,-85.2148 1006.9913,-87.5838 1006.9913,-87.5838"/>
<text text-anchor="middle" x="1167.9761" y="-564.8" font-family="Times,serif" font-size="14.00" fill="#000000">photo_files</text>
</g>
<!-- User -->
<g id="node13" class="node">
<title>User</title>
<path fill="none" stroke="#000000" d="M533.2275,-1302.5C533.2275,-1302.5 828.4971,-1302.5 828.4971,-1302.5 834.4971,-1302.5 840.4971,-1308.5 840.4971,-1314.5 840.4971,-1314.5 840.4971,-1642.5 840.4971,-1642.5 840.4971,-1648.5 834.4971,-1654.5 828.4971,-1654.5 828.4971,-1654.5 533.2275,-1654.5 533.2275,-1654.5 527.2275,-1654.5 521.2275,-1648.5 521.2275,-1642.5 521.2275,-1642.5 521.2275,-1314.5 521.2275,-1314.5 521.2275,-1308.5 527.2275,-1302.5 533.2275,-1302.5"/>
<text text-anchor="middle" x="680.8623" y="-1639.3" font-family="Times,serif" font-size="14.00" fill="#000000">User</text>
<polyline fill="none" stroke="#000000" points="521.2275,-1632.5 840.4971,-1632.5 "/>
<text text-anchor="start" x="529.2275" y="-1617.3" font-family="Times,serif" font-size="14.00" fill="#000000">admin :boolean</text>
<text text-anchor="start" x="529.2275" y="-1603.3" font-family="Times,serif" font-size="14.00" fill="#000000">email :character varying</text>
<text text-anchor="start" x="529.2275" y="-1589.3" font-family="Times,serif" font-size="14.00" fill="#000000">encrypted_password :character varying</text>
<text text-anchor="start" x="529.2275" y="-1575.3" font-family="Times,serif" font-size="14.00" fill="#000000">reset_password_token :character varying</text>
<text text-anchor="start" x="529.2275" y="-1561.3" font-family="Times,serif" font-size="14.00" fill="#000000">reset_password_sent_at :timestamp without time zone</text>
<text text-anchor="start" x="529.2275" y="-1547.3" font-family="Times,serif" font-size="14.00" fill="#000000">remember_created_at :timestamp without time zone</text>
<text text-anchor="start" x="529.2275" y="-1533.3" font-family="Times,serif" font-size="14.00" fill="#000000">sign_in_count :integer</text>
<text text-anchor="start" x="529.2275" y="-1519.3" font-family="Times,serif" font-size="14.00" fill="#000000">current_sign_in_at :timestamp without time zone</text>
<text text-anchor="start" x="529.2275" y="-1505.3" font-family="Times,serif" font-size="14.00" fill="#000000">last_sign_in_at :timestamp without time zone</text>
<text text-anchor="start" x="529.2275" y="-1491.3" font-family="Times,serif" font-size="14.00" fill="#000000">current_sign_in_ip :inet</text>
<text text-anchor="start" x="529.2275" y="-1477.3" font-family="Times,serif" font-size="14.00" fill="#000000">last_sign_in_ip :inet</text>
<text text-anchor="start" x="529.2275" y="-1463.3" font-family="Times,serif" font-size="14.00" fill="#000000">created_at :timestamp without time zone</text>
<text text-anchor="start" x="529.2275" y="-1449.3" font-family="Times,serif" font-size="14.00" fill="#000000">updated_at :timestamp without time zone</text>
<text text-anchor="start" x="529.2275" y="-1435.3" font-family="Times,serif" font-size="14.00" fill="#000000">first_name :character varying</text>
<text text-anchor="start" x="529.2275" y="-1421.3" font-family="Times,serif" font-size="14.00" fill="#000000">last_name :character varying</text>
<text text-anchor="start" x="529.2275" y="-1407.3" font-family="Times,serif" font-size="14.00" fill="#000000">messenger_id :character varying</text>
<text text-anchor="start" x="529.2275" y="-1393.3" font-family="Times,serif" font-size="14.00" fill="#000000">provider :character varying</text>
<text text-anchor="start" x="529.2275" y="-1379.3" font-family="Times,serif" font-size="14.00" fill="#000000">uid :character varying</text>
<text text-anchor="start" x="529.2275" y="-1365.3" font-family="Times,serif" font-size="14.00" fill="#000000">facebook_picture_url :character varying</text>
<text text-anchor="start" x="529.2275" y="-1351.3" font-family="Times,serif" font-size="14.00" fill="#000000">token :character varying</text>
<text text-anchor="start" x="529.2275" y="-1337.3" font-family="Times,serif" font-size="14.00" fill="#000000">token_expiry :timestamp without time zone</text>
<text text-anchor="start" x="529.2275" y="-1323.3" font-family="Times,serif" font-size="14.00" fill="#000000">facebook_picture_check :character varying</text>
<text text-anchor="start" x="529.2275" y="-1309.3" font-family="Times,serif" font-size="14.00" fill="#000000">id :integer</text>
</g>
<!-- User&#45;&gt;Order -->
<g id="edge22" class="edge">
<title>User&#45;&gt;Order</title>
<path fill="none" stroke="#8d31aa" d="M562.6467,-1295.118C557.4157,-1285.0561 552.4478,-1274.9782 547.8623,-1265 508.0641,-1178.3975 476.2717,-1075.3958 454.9861,-996.7839"/>
<ellipse fill="none" stroke="#8d31aa" cx="564.6375" cy="-1298.9003" rx="4" ry="4"/>
<polygon fill="#8d31aa" stroke="#8d31aa" points="454.9077,-996.4918 456.6587,-985.6666 453.6102,-991.663 452.3128,-986.8343 452.3128,-986.8343 452.3128,-986.8343 453.6102,-991.663 447.9669,-988.002 454.9077,-996.4918 454.9077,-996.4918"/>
</g>
<!-- User&#45;&gt;OrderedMeal -->
<g id="edge24" class="edge">
<title>User&#45;&gt;OrderedMeal</title>
<path fill="none" stroke="#e5f404" d="M850.2012,-1405.8449C1017.5159,-1322.5479 1236.9074,-1175.3364 1150.8623,-1005 1080.9364,-866.5736 926.7427,-769.8522 813.9669,-714.4246"/>
<polygon fill="#e5f404" stroke="#e5f404" points="849.737,-1406.074 838.7781,-1406.4652 845.2535,-1408.2872 840.7699,-1410.5004 840.7699,-1410.5004 840.7699,-1410.5004 845.2535,-1408.2872 842.7618,-1414.5356 849.737,-1406.074 849.737,-1406.074"/>
<polygon fill="#e5f404" stroke="#e5f404" points="813.8903,-714.3874 806.867,-705.9658 809.3943,-712.1998 804.8982,-710.0123 804.8982,-710.0123 804.8982,-710.0123 809.3943,-712.1998 802.9294,-714.0587 813.8903,-714.3874 813.8903,-714.3874"/>
</g>
<!-- User&#45;&gt;Restaurant -->
<g id="edge23" class="edge">
<title>User&#45;&gt;Restaurant</title>
<path fill="none" stroke="#858c13" d="M680.8623,-1294.1826C680.8623,-1287.6276 680.8623,-1281.1086 680.8623,-1274.6665"/>
<ellipse fill="none" stroke="#858c13" cx="680.8624" cy="-1298.2084" rx="4" ry="4"/>
<polygon fill="#858c13" stroke="#858c13" points="680.8624,-1274.6126 685.3623,-1264.6125 680.8624,-1269.6126 680.8623,-1264.6126 680.8623,-1264.6126 680.8623,-1264.6126 680.8624,-1269.6126 676.3623,-1264.6126 680.8624,-1274.6126 680.8624,-1274.6126"/>
</g>
</g>
</svg>
