<?xml version="1.0" standalone="no"?>
<!DOCTYPE svg PUBLIC "-//W3C//DTD SVG 20010904//EN"
 "http://www.w3.org/TR/2001/REC-SVG-20010904/DTD/svg10.dtd">
<svg version="1.0" xmlns="http://www.w3.org/2000/svg"
 width="16.000000pt" height="16.000000pt" viewBox="0 0 16.000000 16.000000"
 preserveAspectRatio="xMidYMid meet">
<metadata>
Created by potrace 1.11, written by Peter Selinger 2001-2013
</metadata>
<g transform="translate(0.000000,16.000000) scale(0.006154,-0.006154)"
fill="#000000" stroke="none">
<path d="M1156 2590 c-304 -38 -559 -162 -771 -375 -186 -186 -301 -398 -356
-658 -31 -144 -31 -370 0 -514 55 -260 170 -472 356 -658 186 -186 398 -301
658 -356 144 -31 370 -31 514 0 260 55 472 170 658 356 141 140 243 300 309
483 95 264 95 600 0 864 -113 314 -352 583 -649 731 -210 104 -497 155 -719
127z m-347 -464 c47 -25 81 -72 286 -400 108 -174 200 -316 204 -316 3 1 92
139 196 307 105 168 205 326 223 350 62 81 124 93 224 42 75 -38 163 -123 173
-167 3 -18 3 -46 0 -64 -4 -17 -139 -228 -301 -469 l-293 -437 -3 -300 c-3
-285 -4 -302 -24 -329 -36 -49 -87 -67 -194 -68 -120 0 -167 18 -201 78 -23
41 -24 49 -29 337 l-5 295 -289 433 c-264 395 -289 436 -294 482 -4 43 -1 56
22 89 45 65 184 151 244 151 18 0 46 -7 61 -14z"/>
</g>
</svg>
