<?xml version="1.0" standalone="no"?>
<!DOCTYPE svg PUBLIC "-//W3C//DTD SVG 20010904//EN"
 "http://www.w3.org/TR/2001/REC-SVG-20010904/DTD/svg10.dtd">
<svg version="1.0" xmlns="http://www.w3.org/2000/svg"
 width="16.000000pt" height="16.000000pt" viewBox="0 0 16.000000 16.000000"
 preserveAspectRatio="xMidYMid meet">
<metadata>
Created by potrace 1.11, written by Peter Selinger 2001-2013
</metadata>
<g transform="translate(0.000000,16.000000) scale(0.006154,-0.006154)"
fill="#000000" stroke="none">
<path d="M1131 2590 c-556 -78 -987 -483 -1107 -1041 -26 -118 -26 -380 0
-498 59 -273 167 -474 360 -667 193 -193 394 -301 667 -360 118 -26 380 -26
498 0 273 59 474 167 667 360 193 193 301 394 360 667 14 62 18 127 18 249 0
122 -4 187 -18 249 -59 273 -167 474 -360 667 -190 189 -384 296 -646 355 -99
23 -340 33 -439 19z m-338 -502 c19 -24 78 -110 132 -193 191 -293 306 -435
368 -450 70 -18 83 -3 265 297 68 112 139 225 159 252 l36 49 19 -26 c27 -38
81 -38 105 -1 17 26 17 27 -20 56 -64 52 -54 59 86 56 l122 -3 3 -28 c3 -22
-3 -31 -28 -45 -18 -9 -42 -25 -55 -35 -26 -19 -231 -337 -315 -487 -30 -52
-78 -126 -108 -164 -30 -37 -66 -89 -81 -115 l-26 -46 -2 -280 c-3 -266 -5
-337 -21 -570 l-7 -100 -85 3 c-47 2 -102 7 -122 13 -70 18 -68 6 -68 352 0
304 0 311 -21 334 l-22 22 22 59 c23 63 27 125 11 166 -5 14 -40 58 -77 99
-67 72 -167 212 -199 279 -9 19 -26 38 -37 44 -12 5 -37 37 -55 72 -18 34 -58
89 -89 122 -55 59 -56 60 -112 60 l-56 1 33 28 c17 15 32 33 32 39 0 7 -14 38
-30 69 -21 39 -27 60 -20 67 11 11 158 44 202 45 20 1 35 -10 61 -41z"/>
<path d="M613 2030 c-26 -11 -28 -19 -10 -44 10 -14 23 -17 45 -14 19 3 30 0
29 -6 -3 -14 80 -13 94 1 18 18 -8 51 -49 63 -44 12 -79 12 -109 0z"/>
<path d="M724 1916 c-19 -15 -19 -15 2 -36 25 -26 49 -18 70 21 l15 29 -34 0
c-18 0 -42 -6 -53 -14z"/>
<path d="M802 1850 l-23 -30 24 0 c21 0 24 -4 19 -27 l-5 -26 37 28 c42 32 44
40 14 66 -31 25 -41 24 -66 -11z"/>
<path d="M1727 1858 c-14 -13 -34 -48 -46 -78 -12 -31 -48 -96 -81 -145 -34
-51 -60 -101 -60 -115 l0 -25 20 25 c11 14 45 68 77 120 31 52 78 128 105 168
42 62 46 72 29 72 -11 0 -31 -10 -44 -22z"/>
<path d="M860 1771 c-16 -32 -12 -49 20 -73 20 -14 28 -28 25 -39 -3 -10 3
-22 17 -31 49 -33 128 -118 128 -137 0 -24 22 -28 40 -6 17 20 -21 96 -83 162
-26 29 -53 66 -58 83 -6 16 -17 30 -24 30 -7 0 -15 7 -19 15 -8 21 -33 19 -46
-4z"/>
<path d="M1101 1458 c-14 -38 1 -48 34 -24 16 12 17 16 6 30 -18 22 -30 20
-40 -6z"/>
<path d="M1497 1469 c-17 -10 -47 -59 -47 -79 0 -21 19 -9 49 32 41 56 40 72
-2 47z"/>
<path d="M1170 1364 c0 -17 22 -14 28 4 2 7 -3 12 -12 12 -9 0 -16 -7 -16 -16z"/>
<path d="M1351 1088 c-5 -18 -12 -47 -16 -65 -4 -18 -17 -48 -30 -68 l-24 -35
44 0 c50 0 48 -4 60 133 4 54 3 67 -9 67 -8 0 -19 -15 -25 -32z"/>
<path d="M1246 814 c-9 -8 -16 -26 -16 -39 0 -22 2 -24 27 -14 33 12 51 27 64
51 9 16 6 18 -25 18 -19 0 -42 -7 -50 -16z"/>
<path d="M1256 635 c-3 -9 0 -15 8 -15 7 0 19 7 26 15 10 12 9 15 -8 15 -11 0
-22 -7 -26 -15z"/>
<path d="M1350 601 c-17 -14 -20 -20 -10 -21 22 0 43 16 38 30 -2 8 -11 5 -28
-9z"/>
<path d="M1257 493 c-10 -9 -9 -43 1 -43 10 0 42 33 42 43 0 9 -35 9 -43 0z"/>
</g>
</svg>
